<?xml version="1.0" encoding="utf-8"?>
<!-- Generator: Adobe Illustrator 18.1.0, SVG Export Plug-In . SVG Version: 6.00 Build 0)  -->
<!DOCTYPE svg PUBLIC "-//W3C//DTD SVG 1.1//EN" "http://www.w3.org/Graphics/SVG/1.1/DTD/svg11.dtd">
<svg version="1.1" id="meteor" xmlns="http://www.w3.org/2000/svg" xmlns:xlink="http://www.w3.org/1999/xlink" x="0px" y="0px"
	 viewBox="0 0 598.6 123.7" style="enable-background:new 0 0 598.6 123.7;" xml:space="preserve">
<style type="text/css">
	.st0{fill:#DE4F4F;}
</style>
<g id="O" class="animated zoomInDown">
	<path class="st0" d="M468.9,112.7c-17.1-15.6-34.1-31.4-51.1-47c-12.1-11.2-24.3-22.4-36.4-33.5c26.3,29.2,53,58.1,79.6,87
		c1.1,1.2,6.4,7,10.2,3.2C474,119.5,472.4,115.9,468.9,112.7z"/>
	<path class="st0" d="M447.5,115.7c-13.2-12-26.2-24.1-39.3-36.2c-4.4-4.1-8.8-8.1-13.2-12.2c15.1,17.3,30.7,34.2,46.2,51
		c3.9,3.9,6.5,6.6,8.4,4.7S450,117.9,447.5,115.7z"/>
	<path class="st0" d="M486.6,103.1c-28.1-26.5-56.2-52.9-84.3-79.4C393.9,15.8,385.5,7.9,377,0c-0.2,0.2-0.3,0.3-0.5,0.5
		c0.4,0.5,0.7,1,1.1,1.4c31,33,62.1,65.9,93.1,98.8c3.5,3.8,6.8,7.9,10.8,11.1c1.7,1.3,5.2,2.8,7.3,0.7s2.2-5.2-0.3-7.7
		C487.9,104.2,487.2,103.7,486.6,103.1z"/>
	<path class="st0" d="M496.4,86.2c-29.5-27.2-59-54.5-88.5-81.7c-0.1,0.1-0.1,0.3-0.2,0.4c24.5,26.5,49.1,53.1,73.6,79.6
		c3.3,3.5,6.3,7.4,10,10.4c1.4,1.2,4.6,2.2,6.4,0.4c1.8-1.8,2.9-3.9,0.6-7C497.9,87.8,497.1,86.9,496.4,86.2z"/>
	<path class="st0" d="M500.1,70.1c-17.2-16.2-34.6-32.2-51.9-48.3c-0.2,0.2-0.5,0.4-0.7,0.7c16.3,17.6,32.5,35.2,48.9,52.7
		c0.9,0.9,3.1,2.2,4.7,0.7C502.6,74.2,502.2,71.9,500.1,70.1z"/>
	<path class="st0" d="M407.4,96c6.1,7.4,12.1,14.8,19.1,21.2c0.4,0.2,1,1,1.7,0c0.7-1,0.3-1.3,0-1.7
		C421.3,108.9,414.3,102.5,407.4,96z"/>
	<path class="st0" d="M497,53.1c0.9-0.9-0.3-1.5,0-1.9c-6.8-6.4-13.7-12.9-20.5-19.3c-0.2,0.1-0.4,0.3-0.6,0.4
		c6.4,6.9,12.8,13.8,19.2,20.7C495.4,52.9,496,54.1,497,53.1z"/>
</g>
</svg>
